<svg width="23" height="19" viewBox="0 0 23 19" fill="none" xmlns="http://www.w3.org/2000/svg">
<path d="M22.5187 8.44607C22.5183 8.44569 22.5178 8.44527 22.5174 8.44489L14.2892 0.932196C13.6437 0.348037 12.6018 0.352263 11.962 0.941634C11.9114 0.988213 11.8643 1.03775 11.8208 1.08996C11.3594 1.71826 11.4601 2.55851 12.0594 3.08083L16.6013 7.24286C16.8428 7.46355 17.1204 7.64859 17.4241 7.79129L17.9261 8.03169H1.75767C0.929765 7.99991 0.196941 8.51683 0.0215267 9.25626C-0.123958 10.0754 0.48534 10.8471 1.38252 10.98C1.47663 10.9939 1.57187 11.0003 1.66716 10.9992H17.8932L17.5393 11.1495C17.1941 11.2967 16.8795 11.4975 16.6096 11.743L12.0594 15.8975C11.4601 16.4198 11.3594 17.2601 11.8208 17.8884C12.3577 18.5579 13.3874 18.7032 14.1207 18.213C14.18 18.1734 14.2363 18.1302 14.2892 18.0837L22.5174 10.571C23.1604 9.98453 23.1609 9.03318 22.5187 8.44607Z" fill="#020288"/>
</svg>
